<svg xmlns="http://www.w3.org/2000/svg" version="1.1" xmlns:xlink="http://www.w3.org/1999/xlink" xmlns:svgjs="http://svgjs.dev/svgjs" width="1500" height="1500" viewBox="0 0 1500 1500"><rect width="1500" height="1500" fill="#ffffff"></rect><g transform="matrix(0.6666666666666666,0,0,0.6666666666666666,249.39393939393938,475.154869012072)"><svg viewBox="0 0 396 217" data-background-color="#dedede" preserveAspectRatio="xMidYMid meet" height="821" width="1500" xmlns="http://www.w3.org/2000/svg" xmlns:xlink="http://www.w3.org/1999/xlink"><g id="tight-bounds" transform="matrix(1,0,0,1,0.2400000000000091,0.46722306525039414)"><svg viewBox="0 0 395.52 216.0655538694992" height="216.0655538694992" width="395.52"><g><svg viewBox="0 0 395.52 216.0655538694992" height="216.0655538694992" width="395.52"><g><svg viewBox="0 0 395.52 216.0655538694992" height="216.0655538694992" width="395.52"><g id="textblocktransform"><svg viewBox="0 0 395.52 216.0655538694992" height="216.0655538694992" width="395.52" id="textblock"><g><svg viewBox="0 0 395.52 216.0655538694992" height="216.0655538694992" width="395.52"><g transform="matrix(1,0,0,1,0,0)"><svg width="395.52" viewBox="3.45 -36 65.89999999999999 36" height="216.0655538694992" data-palette-color="#374151"><path d="M13 0L13 0 5.25 0Q4.3 0 3.88-0.43 3.45-0.85 3.45-1.8L3.45-1.8 3.45-34.2Q3.45-35.15 3.88-35.58 4.3-36 5.25-36L5.25-36 13-36Q13.95-36 14.38-35.58 14.8-35.15 14.8-34.2L14.8-34.2 14.8-23.35 23.15-23.35 23.15-34.2Q23.15-35.15 23.58-35.58 24-36 24.95-36L24.95-36 32.7-36Q33.65-36 34.08-35.58 34.5-35.15 34.5-34.2L34.5-34.2 34.5-1.8Q34.5-0.85 34.08-0.43 33.65 0 32.7 0L32.7 0 24.95 0Q24 0 23.58-0.43 23.15-0.85 23.15-1.8L23.15-1.8 23.15-12.9 14.8-12.9 14.8-1.8Q14.8-0.85 14.38-0.43 13.95 0 13 0ZM58.4 0L58.4 0 50.3 0Q49.35 0 48.92-0.43 48.5-0.85 48.5-1.8L48.5-1.8 48.5-26.35 41.15-26.35Q40.2-26.35 39.77-26.78 39.35-27.2 39.35-28.15L39.35-28.15 39.35-34.2Q39.35-35.15 39.77-35.58 40.2-36 41.15-36L41.15-36 67.55-36Q68.5-36 68.92-35.58 69.35-35.15 69.35-34.2L69.35-34.2 69.35-28.15Q69.35-27.2 68.92-26.78 68.5-26.35 67.55-26.35L67.55-26.35 60.2-26.35 60.2-1.8Q60.2-0.85 59.77-0.43 59.35 0 58.4 0Z" opacity="1" transform="matrix(1,0,0,1,0,0)" fill="#000000" class="wordmark-text-0" data-fill-palette-color="primary" id="text-0"></path></svg></g></svg></g></svg></g></svg></g><g></g></svg></g><defs></defs></svg><rect width="395.52" height="216.0655538694992" fill="none" stroke="none" visibility="hidden"></rect></g></svg></g></svg>